<svg width="174" height="48" viewBox="0 0 174 48" fill="none" xmlns="http://www.w3.org/2000/svg">
<g filter="url(#filter0_d_2_324)">
<path d="M56.5991 29V11.5455H68.1559V14.5881H60.2894V18.7472H67.3889V21.7898H60.2894V29H56.5991ZM70.57 29V15.9091H74.2006V29H70.57ZM72.3938 14.2216C71.854 14.2216 71.391 14.0426 71.0046 13.6847C70.6239 13.321 70.4336 12.8864 70.4336 12.3807C70.4336 11.8807 70.6239 11.4517 71.0046 11.0938C71.391 10.7301 71.854 10.5483 72.3938 10.5483C72.9336 10.5483 73.3938 10.7301 73.7745 11.0938C74.1609 11.4517 74.354 11.8807 74.354 12.3807C74.354 12.8864 74.1609 13.321 73.7745 13.6847C73.3938 14.0426 72.9336 14.2216 72.3938 14.2216ZM80.7397 21.4318V29H77.109V15.9091H80.5692V18.2188H80.7227C81.0124 17.4574 81.4982 16.8551 82.18 16.4119C82.8619 15.9631 83.6886 15.7386 84.6602 15.7386C85.5692 15.7386 86.3619 15.9375 87.038 16.3352C87.7141 16.733 88.2397 17.3011 88.6147 18.0398C88.9897 18.7727 89.1772 19.6477 89.1772 20.6648V29H85.5465V21.3125C85.5522 20.5114 85.3477 19.8864 84.9329 19.4375C84.5181 18.983 83.9471 18.7557 83.2198 18.7557C82.7312 18.7557 82.2994 18.8608 81.9244 19.071C81.555 19.2812 81.2653 19.5881 81.055 19.9915C80.8505 20.3892 80.7454 20.8693 80.7397 21.4318ZM96.8626 29.2131C95.8683 29.2131 94.9677 28.9574 94.1609 28.446C93.3597 27.929 92.7234 27.1705 92.2518 26.1705C91.7859 25.1648 91.5529 23.9318 91.5529 22.4716C91.5529 20.9716 91.7944 19.7244 92.2773 18.7301C92.7603 17.7301 93.4023 16.983 94.2035 16.4886C95.0103 15.9886 95.8938 15.7386 96.854 15.7386C97.587 15.7386 98.1978 15.8636 98.6864 16.1136C99.1808 16.358 99.5785 16.6648 99.8796 17.0341C100.186 17.3977 100.419 17.7557 100.578 18.108H100.689V11.5455H104.311V29H100.732V26.9034H100.578C100.408 27.267 100.167 27.6278 99.854 27.9858C99.5472 28.3381 99.1467 28.6307 98.6523 28.8636C98.1637 29.0966 97.5671 29.2131 96.8626 29.2131ZM98.0131 26.3239C98.5984 26.3239 99.0927 26.1648 99.4961 25.8466C99.9052 25.5227 100.218 25.071 100.434 24.4915C100.655 23.9119 100.766 23.233 100.766 22.4545C100.766 21.6761 100.658 21 100.442 20.4261C100.226 19.8523 99.9137 19.4091 99.5046 19.0966C99.0955 18.7841 98.5984 18.6278 98.0131 18.6278C97.4165 18.6278 96.9137 18.7898 96.5046 19.1136C96.0955 19.4375 95.7859 19.8864 95.5756 20.4602C95.3654 21.0341 95.2603 21.6989 95.2603 22.4545C95.2603 23.2159 95.3654 23.8892 95.5756 24.4744C95.7915 25.054 96.1012 25.5085 96.5046 25.8381C96.9137 26.1619 97.4165 26.3239 98.0131 26.3239ZM114.26 15.9091V18.6364H106.376V15.9091H114.26ZM108.166 12.7727H111.797V24.9773C111.797 25.3125 111.848 25.5739 111.95 25.7614C112.052 25.9432 112.194 26.071 112.376 26.1449C112.564 26.2187 112.779 26.2557 113.024 26.2557C113.194 26.2557 113.365 26.2415 113.535 26.2131C113.706 26.179 113.836 26.1534 113.927 26.1364L114.498 28.8381C114.316 28.8949 114.061 28.9602 113.731 29.0341C113.402 29.1136 113.001 29.1619 112.529 29.179C111.654 29.2131 110.887 29.0966 110.228 28.8295C109.575 28.5625 109.066 28.1477 108.703 27.5852C108.339 27.0227 108.16 26.3125 108.166 25.4545V12.7727ZM116.625 29V15.9091H120.145V18.1932H120.281C120.52 17.3807 120.92 16.767 121.483 16.3523C122.045 15.9318 122.693 15.7216 123.426 15.7216C123.608 15.7216 123.804 15.733 124.014 15.7557C124.224 15.7784 124.409 15.8097 124.568 15.8494V19.071C124.397 19.0199 124.162 18.9744 123.86 18.9347C123.559 18.8949 123.284 18.875 123.034 18.875C122.5 18.875 122.022 18.9915 121.602 19.2244C121.187 19.4517 120.858 19.7699 120.613 20.179C120.375 20.5881 120.255 21.0597 120.255 21.5938V29H116.625ZM131.801 29.2557C130.455 29.2557 129.296 28.983 128.324 28.4375C127.358 27.8864 126.614 27.108 126.091 26.1023C125.569 25.0909 125.307 23.8949 125.307 22.5142C125.307 21.1676 125.569 19.9858 126.091 18.9688C126.614 17.9517 127.35 17.1591 128.299 16.5909C129.253 16.0227 130.373 15.7386 131.657 15.7386C132.52 15.7386 133.324 15.8778 134.069 16.1562C134.819 16.429 135.472 16.8409 136.029 17.392C136.591 17.9432 137.029 18.6364 137.341 19.4716C137.654 20.3011 137.81 21.2727 137.81 22.3864V23.3835H126.756V21.1335H134.392C134.392 20.6108 134.279 20.1477 134.051 19.7443C133.824 19.3409 133.509 19.0256 133.105 18.7983C132.708 18.5653 132.245 18.4489 131.716 18.4489C131.165 18.4489 130.676 18.5767 130.25 18.8324C129.83 19.0824 129.5 19.4205 129.262 19.8466C129.023 20.267 128.901 20.7358 128.895 21.2528V23.392C128.895 24.0398 129.015 24.5994 129.253 25.071C129.498 25.5426 129.841 25.9062 130.284 26.1619C130.728 26.4176 131.253 26.5455 131.861 26.5455C132.265 26.5455 132.634 26.4886 132.969 26.375C133.304 26.2614 133.591 26.0909 133.83 25.8636C134.069 25.6364 134.25 25.358 134.375 25.0284L137.733 25.25C137.563 26.0568 137.213 26.7614 136.685 27.3636C136.162 27.9602 135.486 28.4261 134.657 28.7614C133.833 29.0909 132.881 29.2557 131.801 29.2557ZM143.81 21.4318V29H140.179V15.9091H143.64V18.2188H143.793C144.083 17.4574 144.569 16.8551 145.25 16.4119C145.932 15.9631 146.759 15.7386 147.73 15.7386C148.64 15.7386 149.432 15.9375 150.108 16.3352C150.784 16.733 151.31 17.3011 151.685 18.0398C152.06 18.7727 152.248 19.6477 152.248 20.6648V29H148.617V21.3125C148.623 20.5114 148.418 19.8864 148.003 19.4375C147.588 18.983 147.017 18.7557 146.29 18.7557C145.801 18.7557 145.37 18.8608 144.995 19.071C144.625 19.2812 144.336 19.5881 144.125 19.9915C143.921 20.3892 143.816 20.8693 143.81 21.4318ZM159.933 29.2131C158.939 29.2131 158.038 28.9574 157.231 28.446C156.43 27.929 155.794 27.1705 155.322 26.1705C154.856 25.1648 154.623 23.9318 154.623 22.4716C154.623 20.9716 154.865 19.7244 155.348 18.7301C155.831 17.7301 156.473 16.983 157.274 16.4886C158.081 15.9886 158.964 15.7386 159.924 15.7386C160.657 15.7386 161.268 15.8636 161.757 16.1136C162.251 16.358 162.649 16.6648 162.95 17.0341C163.257 17.3977 163.49 17.7557 163.649 18.108H163.76V11.5455H167.382V29H163.802V26.9034H163.649C163.478 27.267 163.237 27.6278 162.924 27.9858C162.618 28.3381 162.217 28.6307 161.723 28.8636C161.234 29.0966 160.637 29.2131 159.933 29.2131ZM161.083 26.3239C161.669 26.3239 162.163 26.1648 162.566 25.8466C162.975 25.5227 163.288 25.071 163.504 24.4915C163.725 23.9119 163.836 23.233 163.836 22.4545C163.836 21.6761 163.728 21 163.512 20.4261C163.297 19.8523 162.984 19.4091 162.575 19.0966C162.166 18.7841 161.669 18.6278 161.083 18.6278C160.487 18.6278 159.984 18.7898 159.575 19.1136C159.166 19.4375 158.856 19.8864 158.646 20.4602C158.436 21.0341 158.331 21.6989 158.331 22.4545C158.331 23.2159 158.436 23.8892 158.646 24.4744C158.862 25.054 159.172 25.5085 159.575 25.8381C159.984 26.1619 160.487 26.3239 161.083 26.3239Z" fill="white"/>
<circle cx="25" cy="20" r="16" fill="black"/>
<path fill-rule="evenodd" clip-rule="evenodd" d="M24.6836 40C35.7293 40 44.6836 31.0457 44.6836 20C44.6836 8.95431 35.7293 0 24.6836 0C13.6379 0 4.68359 8.95431 4.68359 20C4.68359 31.0457 13.6379 40 24.6836 40ZM30.9229 9.31684C31.2266 8.23805 30.1797 7.60013 29.2236 8.2813L15.8767 17.7896C14.8398 18.5283 15.0029 20 16.1217 20H19.6363V19.9728H26.4861L20.9048 21.9421L18.4443 30.6832C18.1406 31.762 19.1874 32.3999 20.1436 31.7187L33.4905 22.2105C34.5274 21.4718 34.3642 20 33.2455 20H27.9157L30.9229 9.31684Z" fill="#A8FF35"/>
</g>
<defs>
<filter id="filter0_d_2_324" x="0" y="0" width="178" height="49" filterUnits="userSpaceOnUse" color-interpolation-filters="sRGB">
<feFlood flood-opacity="0" result="BackgroundImageFix"/>
<feColorMatrix in="SourceAlpha" type="matrix" values="0 0 0 0 0 0 0 0 0 0 0 0 0 0 0 0 0 0 127 0" result="hardAlpha"/>
<feOffset dy="4"/>
<feGaussianBlur stdDeviation="2"/>
<feComposite in2="hardAlpha" operator="out"/>
<feColorMatrix type="matrix" values="0 0 0 0 0 0 0 0 0 0 0 0 0 0 0 0 0 0 0.25 0"/>
<feBlend mode="normal" in2="BackgroundImageFix" result="effect1_dropShadow_2_324"/>
<feBlend mode="normal" in="SourceGraphic" in2="effect1_dropShadow_2_324" result="shape"/>
</filter>
</defs>
</svg>
